<?xml version="1.0" encoding="UTF-8" standalone="no"?>
<!DOCTYPE svg PUBLIC "-//W3C//DTD SVG 1.1//EN" "http://www.w3.org/Graphics/SVG/1.1/DTD/svg11.dtd">
<svg width="100%" height="100%" viewBox="0 0 500 500" version="1.1" xmlns="http://www.w3.org/2000/svg" xmlns:xlink="http://www.w3.org/1999/xlink" xml:space="preserve" xmlns:serif="http://www.serif.com/" style="fill-rule:evenodd;clip-rule:evenodd;stroke-linejoin:round;stroke-miterlimit:2;">
    <g transform="matrix(1,0,0,0.784831,1.706666,53.792318)">
        <rect x="52" y="226" width="22.87" height="48" style="fill:rgb(162,82,11);"/>
    </g>
    <g transform="matrix(1,0,0,1,-0,-5.164062)">
        <rect x="74.87" y="236.328" width="350.26" height="13.672" style="fill:rgb(232,114,4);"/>
    </g>
    <g transform="matrix(1,0,0,0.755429,0,66.30692)">
        <rect x="74.87" y="236.328" width="350.26" height="13.672" style="fill:rgb(113,57,6);"/>
    </g>
    <path d="M448,236.882L448,263.118C448,266.274 445.438,268.836 442.283,268.836L430.848,268.836C427.692,268.836 425.13,266.274 425.13,263.118L425.13,236.882C425.13,233.726 427.692,231.164 430.848,231.164L442.283,231.164C445.438,231.164 448,233.726 448,236.882Z" style="fill:rgb(162,82,11);"/>
    <g transform="matrix(0.5,0,0,1,212.565104,0)">
        <rect x="425.13" y="231.164" width="22.87" height="37.672" style="fill:rgb(162,82,11);"/>
    </g>
    <g transform="matrix(1,0,0,1,-0,18.835938)">
        <rect x="74.87" y="236.328" width="350.26" height="13.672" style="fill:rgb(232,114,4);"/>
    </g>
</svg>
