<?xml version="1.0" encoding="UTF-8" standalone="no"?><!DOCTYPE svg PUBLIC "-//W3C//DTD SVG 1.1//EN" "http://www.w3.org/Graphics/SVG/1.1/DTD/svg11.dtd"><svg width="100%" height="100%" viewBox="0 0 120 120" version="1.1" xmlns="http://www.w3.org/2000/svg" xmlns:xlink="http://www.w3.org/1999/xlink" xml:space="preserve" xmlns:serif="http://www.serif.com/" style="fill-rule:evenodd;clip-rule:evenodd;stroke-linejoin:round;stroke-miterlimit:2;"><path d="M60,72.381c-0.632,0 -1.896,-3.332 -1.896,-3.332l3.792,0c0,0 -1.264,3.332 -1.896,3.332Z" style="fill:#996e00;"/><path d="M69.72,48.852l0,19.61c0,0.536 -0.436,0.972 -0.972,0.972l-17.496,0c-0.536,0 -0.972,-0.436 -0.972,-0.972l0,-19.61c0,-0.536 0.436,-0.972 0.972,-0.972l17.496,0c0.536,0 0.972,0.436 0.972,0.972Z" style="fill:#e97200;"/><rect x="50.28" y="58.325" width="19.44" height="11.109" style="fill:#e97200;"/><circle cx="60" cy="58.657" r="6.52" style="fill:#602a06;"/><path d="M50.28,69.434l6.812,0l-1.703,1.745l-3.406,0l-1.703,-1.745Z" style="fill:#a6530d;"/><path d="M62.908,69.434l6.812,0l-1.703,1.745l-3.406,0l-1.703,-1.745Z" style="fill:#a6530d;"/></svg>